<svg width="96" height="96" viewBox="0 0 541 314" fill="none" xmlns="http://www.w3.org/2000/svg">
<path d="M229.6 220.4L230.4 237.2C230.4 262.267 221.733 281.2 204.4 294C187.333 307.067 167.067 313.6 143.6 313.6C136.4 313.6 129.2 312.667 122 310.8C114.8 308.933 109.333 306.933 105.6 304.8C101.867 302.933 97.3333 300.4 92 297.2C86.9333 294.267 84.1333 292.667 83.6 292.4L74 286.8C68.4 292.4 60.9333 297.467 51.6 302C42.5333 306.533 34.4 308.8 27.2 308.8L7.2 284.8L0 273.6C4.8 270.933 7.2 265.067 7.2 256V184H53.6L73.6 208V220.4L75.2 232C80.8 235.467 89.4667 237.2 101.2 237.2C113.2 237.2 120.533 231.6 123.2 220.4C118.933 222.8 116 224.8 114.4 226.4L75.6 180L82.4 174C70.9333 166.8 61.7333 160.667 54.8 155.6C48.1333 150.533 40.1333 143.467 30.8 134.4C12.1333 116.8 2.8 96.2667 2.8 72.8C2.8 49.0667 11.7333 31.0667 29.6 18.8C47.7333 6.26666 68.6667 0 92.4 0C105.2 0 116.667 2 126.8 5.99999C136.933 9.73333 143.867 13.6 147.6 17.6L153.2 23.2V4.79999H202.8L222.8 28.8V118.4H176L156 94.4L150.4 76C145.867 73.6 140.533 72.4 134.4 72.4C128.267 72.4 123.067 74.5333 118.8 78.8C114.8 83.0667 112.8 88.9333 112.8 96.4L113.2 100C114 100.8 121.333 104.533 135.2 111.2C149.333 117.6 162.8 125.333 175.6 134.4C188.4 143.2 196.4 152 199.6 160.8C203.6 160.267 210.8 160 221.2 160L241.2 184V213.2C233.467 213.2 229.6 215.6 229.6 220.4ZM14.8 69.6C14.8 82.6667 18.1333 94.4 24.8 104.8C31.7333 114.933 39.2 122.667 47.2 128C55.2 133.067 65.4667 139.067 78 146C90.5333 152.933 99.3333 158.267 104.4 162C109.2 160.667 114 160 118.8 160C129.2 160 139.2 164 148.8 172L156 164H166C169.467 168.533 172.533 171.6 175.2 173.2C178.4 169.2 182.4 166.133 187.2 164C181.6 154.133 172.533 145.2 160 137.2C147.467 128.933 135.467 122.533 124 118C112.8 113.467 102.667 107.333 93.6 99.6C84.8 91.6 80.4 82.5333 80.4 72.4C80.4 65.7333 81.8667 59.6 84.8 54C90.9333 42.8 101.067 37.2 115.2 37.2C138.667 37.2 155.333 52.5333 165.2 83.2H193.6V16H163.2V44H160.8C143.467 22.4 120.8 11.6 92.8 11.6C71.7333 11.6 53.4667 16.9333 38 27.6C22.5333 38 14.8 52 14.8 69.6ZM198.8 214L198 196.4C198 185.2 202.4 179.6 211.2 179.6V169.6C206.133 169.6 202.267 169.867 199.6 170.4C197.2 170.667 194 172.267 190 175.2C186 178.133 182.267 182.533 178.8 188.4C172.4 187.333 166.533 182.8 161.2 174.8C156.133 180.933 150.8 184.8 145.2 186.4C137.733 175.2 127.6 169.6 114.8 169.6C106.533 169.6 98.4 173.333 90.4 180.8L96.4 188.4C101.467 184.4 106.667 182.4 112 182.4C117.333 182.4 122 184 126 187.2C130.267 190.4 132.8 194.133 133.6 198.4C134.667 202.667 135.2 207.467 135.2 212.8C135.2 217.867 134.4 222.8 132.8 227.6C131.467 232.4 128 237.2 122.4 242C116.8 246.533 109.467 248.8 100.4 248.8C85.2 248.8 72.1333 244.267 61.2 235.2C50.2667 226.133 44 212.933 42.4 195.6H18.8V252C18.8 262.933 17.4667 269.6 14.8 272C19.8667 271.2 26.6667 268.133 35.2 262.8C44 257.467 49.4667 252.8 51.6 248.8C55.3333 251.2 60.6667 254.533 67.6 258.8C88.6667 271.867 107.067 278.4 122.8 278.4C144.133 278.4 162.133 272.933 176.8 262C191.467 250.8 198.8 234.8 198.8 214Z" fill="black"/>
<path d="M444.9 173.6C447.833 171.733 451.033 168.4 454.5 163.6H464.9C468.367 168.667 471.567 172 474.5 173.6C479.3 167.467 484.767 163.733 490.9 162.4C497.3 160.8 507.033 160 520.1 160L540.1 184V212.8C529.7 212.8 523.033 214.8 520.1 218.8C517.167 222.8 515.7 229.067 515.7 237.6V241.6C515.7 255.467 512.367 267.333 505.7 277.2C499.3 287.067 490.5 294.533 479.3 299.6C458.767 308.933 434.9 313.6 407.7 313.6C374.367 313.6 345.567 306.4 321.3 292C308.767 284.8 298.633 274.8 290.9 262C283.433 249.2 279.7 234.4 279.7 217.6V212.8H275.3L255.3 188.8V160C266.767 160 274.9 160.4 279.7 161.2V72.4C279.7 41.2 295.967 20 328.5 8.79998C345.033 2.93333 363.167 0 382.9 0C402.633 0 419.833 1.86667 434.5 5.6C449.167 9.06665 462.633 14.5333 474.9 22C487.433 29.2 497.3 39.2 504.5 52C511.7 64.8 515.3 79.6 515.3 96.4V136.8H437.7L417.7 112.8V84L417.3 77.6C414.9 76.8 411.433 76.4 406.9 76.4C387.167 76.4 377.3 86.9333 377.3 108V161.6L396.1 184V212.8C380.367 213.333 372.5 218.667 372.5 228.8V232C376.767 233.333 381.833 234 387.7 234C407.433 234 418.9 226.933 422.1 212.8H419.3L399.3 188.8V160C408.367 160 415.033 160.133 419.3 160.4C429.7 161.2 438.233 165.6 444.9 173.6ZM300.9 173.6C303.567 171.467 306.767 168.133 310.5 163.6H320.9C324.1 168.667 327.3 172 330.5 173.6C334.5 168.533 339.7 164.933 346.1 162.8V83.6C346.1 69.7333 349.7 59.0667 356.9 51.6C364.1 44.1333 374.233 40.4 387.3 40.4C400.367 40.4 410.633 44.1333 418.1 51.6C425.567 58.8 429.3 69.4666 429.3 83.6V101.6H484.1V73.2C484.1 58.5333 479.033 46.4 468.9 36.8C459.033 27.2 447.167 20.6667 433.3 17.2C419.433 13.4667 405.167 11.6 390.5 11.6C375.833 11.6 363.033 12.6667 352.1 14.8C341.433 16.9333 331.3 20.2666 321.7 24.8C312.367 29.3333 304.9 35.7333 299.3 44C293.7 52.2667 290.9 62 290.9 73.2V165.2C294.367 167.067 297.7 169.867 300.9 173.6ZM484.1 217.2V213.6C484.1 190.933 492.767 179.6 510.1 179.6V170C499.167 170 491.033 172.667 485.7 178C483.033 180.667 480.367 184.133 477.7 188.4C472.1 187.333 466.233 182.8 460.1 174.8C455.3 181.733 449.3 186.267 442.1 188.4C438.633 182.8 434.767 178.533 430.5 175.6C426.5 172.667 423.167 171.067 420.5 170.8C418.1 170.267 414.633 170 410.1 170V179.6C418.367 179.6 424.367 182.267 428.1 187.6C431.833 192.933 433.7 198 433.7 202.8C433.7 231.067 418.367 245.2 387.7 245.2C357.033 245.2 341.7 231.067 341.7 202.8C341.7 197.733 343.567 192.667 347.3 187.6C351.033 182.267 357.033 179.6 365.3 179.6V170C360.5 170 356.767 170.267 354.1 170.8C351.7 171.067 348.5 172.667 344.5 175.6C340.5 178.267 336.767 182.533 333.3 188.4C326.9 187.333 320.9 182.8 315.3 174.8C309.967 181.733 304.1 186.267 297.7 188.4C294.233 182.8 290.5 178.533 286.5 175.6C282.5 172.667 279.167 171.067 276.5 170.8C273.833 170.267 270.1 170 265.3 170V179.6C282.633 179.6 291.3 190.933 291.3 213.6V217.2C291.3 231.867 296.367 244 306.5 253.6C316.633 263.2 328.5 269.867 342.1 273.6C355.967 277.067 371.167 278.8 387.7 278.8C404.233 278.8 419.3 277.067 432.9 273.6C446.767 269.867 458.767 263.2 468.9 253.6C479.033 244 484.1 231.867 484.1 217.2Z" fill="black"/>
</svg>
